<?xml version="1.0" encoding="UTF-8"?>
<svg width="402px" height="69px" viewBox="0 0 402 69" version="1.1" xmlns="http://www.w3.org/2000/svg" xmlns:xlink="http://www.w3.org/1999/xlink">
    <!-- Generator: Sketch 42 (36781) - http://www.bohemiancoding.com/sketch -->
    <title>Group 3</title>
    <desc>Created with Sketch.</desc>
    <defs></defs>
    <g id="Page-1" stroke="none" stroke-width="1" fill="none" fill-rule="evenodd">
        <g id="Artboard-Copy" transform="translate(-199.000000, -265.000000)">
            <g id="Group-3" transform="translate(200.000000, 266.000000)">
                <g id="Group">
                    <path d="M136.521484,41.3466797 C137.488286,41.3466797 138.288571,41.663571 138.922363,42.2973633 C139.556156,42.9311555 139.873047,43.7314405 139.873047,44.6982422 C139.873047,45.6435594 139.518558,46.4706996 138.80957,47.1796875 C135.479476,50.1015771 131.558616,51.5625 127.046875,51.5625 C122.062475,51.5625 117.808611,49.8007989 114.285156,46.2773438 C110.761701,42.7538886 109,38.5000249 109,33.515625 C109,28.5312251 110.761701,24.2773614 114.285156,20.7539062 C117.808611,17.2304511 122.062475,15.46875 127.046875,15.46875 C131.580101,15.46875 135.50096,16.9296729 138.80957,19.8515625 C139.583012,20.5390659 139.969727,21.3876903 139.969727,22.3974609 C139.969727,23.3642626 139.652835,24.1699187 139.019043,24.8144531 C138.385251,25.4589876 137.584966,25.78125 136.618164,25.78125 C135.801754,25.78125 135.071292,25.5234401 134.426758,25.0078125 C133.331049,24.0839798 132.181647,23.3857446 130.978516,22.9130859 C129.775385,22.4404273 128.464851,22.2041016 127.046875,22.2041016 C125.478508,22.2041016 124.006843,22.4995088 122.631836,23.090332 C121.256829,23.6811553 120.053716,24.4868113 119.022461,25.5073242 C117.991206,26.5278371 117.180179,27.7255791 116.589355,29.1005859 C115.998532,30.4755928 115.703125,31.9472578 115.703125,33.515625 C115.703125,35.0839922 115.998532,36.5556572 116.589355,37.9306641 C117.180179,39.3056709 117.991206,40.5034129 119.022461,41.5239258 C120.053716,42.5444387 121.256829,43.3500947 122.631836,43.940918 C124.006843,44.5317412 125.478508,44.8271484 127.046875,44.8271484 C128.464851,44.8271484 129.775385,44.5961937 130.978516,44.1342773 C132.181647,43.672361 133.320307,42.9794968 134.394531,42.0556641 C134.996097,41.6044899 135.705074,41.3681642 136.521484,41.3466797 Z M161.105078,22.2041016 C159.515227,22.2041016 158.032819,22.5048798 156.657813,23.1064453 C155.282806,23.7080108 154.090435,24.5190379 153.080664,25.5395508 C152.070893,26.5600637 151.270609,27.7578056 150.679785,29.1328125 C150.088962,30.5078194 149.793555,31.9687423 149.793555,33.515625 C149.793555,35.0625077 150.088962,36.5234306 150.679785,37.8984375 C151.270609,39.2734444 152.070893,40.4711863 153.080664,41.4916992 C154.090435,42.5122121 155.282806,43.3232392 156.657813,43.9248047 C158.032819,44.5263702 159.515227,44.8271484 161.105078,44.8271484 C162.673445,44.8271484 164.14511,44.5263702 165.520117,43.9248047 C166.895124,43.3232392 168.092866,42.5068411 169.113379,41.4755859 C170.133892,40.4443308 170.939548,39.2465889 171.530371,37.8823242 C172.121194,36.5180596 172.416602,35.0625077 172.416602,33.515625 C172.416602,31.9687423 172.121194,30.5131904 171.530371,29.1489258 C170.939548,27.7846611 170.133892,26.5869192 169.113379,25.5556641 C168.092866,24.5244089 166.895124,23.7080108 165.520117,23.1064453 C164.14511,22.5048798 162.673445,22.2041016 161.105078,22.2041016 Z M172.416602,48.2109375 L172.416602,47.5664062 C170.805265,48.8554752 169.054306,49.8437466 167.163672,50.53125 C165.273038,51.2187534 163.253526,51.5625 161.105078,51.5625 C156.120678,51.5625 151.866815,49.8007989 148.343359,46.2773438 C144.819904,42.7538886 143.058203,38.5000249 143.058203,33.515625 C143.058203,28.5312251 144.819904,24.2773614 148.343359,20.7539062 C151.866815,17.2304511 156.120678,15.46875 161.105078,15.46875 C166.046509,15.46875 170.300373,17.2304511 173.866797,20.7539062 C177.390252,24.2773614 179.151953,28.5312251 179.151953,33.515625 L179.151953,48.2109375 C179.151953,49.1347702 178.82432,49.9243131 178.169043,50.5795898 C177.513766,51.2348666 176.724223,51.5625 175.800391,51.5625 C174.855073,51.5625 174.054789,51.2348666 173.399512,50.5795898 C172.744235,49.9243131 172.416602,49.1347702 172.416602,48.2109375 Z M190.814649,18.8203125 L190.814649,19.4648438 C192.425985,18.1757748 194.176944,17.1875034 196.067578,16.5 C197.958213,15.8124966 199.977724,15.46875 202.126172,15.46875 C203.071489,15.46875 204.086616,15.5332025 205.171582,15.6621094 C206.256549,15.7910163 207.255562,16.021971 208.168653,16.3549805 C209.081743,16.6879899 209.83906,17.1445283 210.440625,17.7246094 C211.042191,18.3046904 211.342969,19.056636 211.342969,19.9804688 C211.342969,20.4531274 211.251661,20.8935526 211.069043,21.3017578 C210.886425,21.709963 210.644728,22.0698227 210.343946,22.3813477 C210.043163,22.6928727 209.688674,22.9345695 209.280469,23.1064453 C208.872264,23.2783212 208.431838,23.3642578 207.95918,23.3642578 C207.550975,23.3642578 207.078323,23.2460949 206.541211,23.0097656 C205.187689,22.4726536 203.716024,22.2041016 202.126172,22.2041016 C200.557805,22.2041016 199.08614,22.4995088 197.711133,23.090332 C196.336126,23.6811553 195.138384,24.4868113 194.117871,25.5073242 C193.097358,26.5278371 192.291702,27.7255791 191.700879,29.1005859 C191.110056,30.4755928 190.814649,31.9472578 190.814649,33.515625 L190.814649,48.2109375 C190.814649,49.1347702 190.487015,49.9243131 189.831738,50.5795898 C189.176462,51.2348666 188.386919,51.5625 187.463086,51.5625 C186.517769,51.5625 185.717484,51.2348666 185.062207,50.5795898 C184.406931,49.9243131 184.079297,49.1347702 184.079297,48.2109375 L184.079297,18.8203125 C184.079297,17.8964798 184.406931,17.1069369 185.062207,16.4516602 C185.717484,15.7963834 186.517769,15.46875 187.463086,15.46875 C188.386919,15.46875 189.176462,15.7963834 189.831738,16.4516602 C190.487015,17.1069369 190.814649,17.8964798 190.814649,18.8203125 Z M231.092578,51.5625 C226.774197,51.5625 223.003727,50.2412242 219.781055,47.5986328 L219.781055,63.6796875 C219.781055,64.6464892 219.453422,65.4467742 218.798145,66.0805664 C218.142868,66.7143586 217.342583,67.03125 216.397266,67.03125 C215.430464,67.03125 214.630179,66.7143586 213.996387,66.0805664 C213.362595,65.4467742 213.045703,64.6464892 213.045703,63.6796875 L213.045703,33.515625 C213.045703,28.5312251 214.807405,24.2773614 218.33086,20.7539062 C221.854315,17.2304511 226.108178,15.46875 231.092578,15.46875 C236.034009,15.46875 240.287873,17.2304511 243.854297,20.7539062 C245.616025,22.4941493 246.937301,24.4330948 247.818164,26.5708008 C248.699028,28.7085068 249.139453,31.023425 249.139453,33.515625 C249.139453,38.5429939 247.377752,42.7968576 243.854297,46.2773438 C242.049601,48.0605558 240.089171,49.3872027 237.97295,50.2573242 C235.856728,51.1274458 233.563294,51.5625 231.092578,51.5625 Z M219.781055,33.515625 C219.781055,35.0625077 220.076462,36.5234306 220.667285,37.8984375 C221.258109,39.2734444 222.058394,40.4711863 223.068164,41.4916992 C224.077935,42.5122121 225.270306,43.3232392 226.645313,43.9248047 C228.02032,44.5263702 229.502727,44.8271484 231.092578,44.8271484 C232.660946,44.8271484 234.132611,44.5263702 235.507617,43.9248047 C236.882624,43.3232392 238.080366,42.5068411 239.100879,41.4755859 C240.121392,40.4443308 240.927048,39.2465889 241.517871,37.8823242 C242.108695,36.5180596 242.404102,35.0625077 242.404102,33.515625 C242.404102,31.9687423 242.108695,30.5131904 241.517871,29.1489258 C240.927048,27.7846611 240.121392,26.5869192 239.100879,25.5556641 C238.080366,24.5244089 236.882624,23.7080108 235.507617,23.1064453 C234.132611,22.5048798 232.660946,22.2041016 231.092578,22.2041016 C229.502727,22.2041016 228.02032,22.5048798 226.645313,23.1064453 C225.270306,23.7080108 224.077935,24.5190379 223.068164,25.5395508 C222.058394,26.5600637 221.258109,27.7578056 220.667285,29.1328125 C220.076462,30.5078194 219.781055,31.9687423 219.781055,33.515625 Z M281.10293,30.1640625 C280.737694,28.982416 280.195219,27.9028369 279.475489,26.925293 C278.755759,25.947749 277.917876,25.1098668 276.961817,24.4116211 C276.005757,23.7133754 274.953033,23.1709004 273.803614,22.7841797 C272.654194,22.397459 271.467194,22.2041016 270.242579,22.2041016 C269.017963,22.2041016 267.825592,22.397459 266.66543,22.7841797 C265.505268,23.1709004 264.441802,23.7133754 263.475,24.4116211 C262.508199,25.1098668 261.670316,25.947749 260.961329,26.925293 C260.252341,27.9028369 259.725979,28.982416 259.382227,30.1640625 L281.10293,30.1640625 Z M279.652735,41.4111328 C280.619536,41.4111328 281.419821,41.7280242 282.053614,42.3618164 C282.687406,42.9956086 283.004297,43.7958936 283.004297,44.7626953 C283.004297,45.7080125 282.682035,46.5136685 282.0375,47.1796875 C278.707406,50.1015771 274.775804,51.5625 270.242579,51.5625 C265.258179,51.5625 261.004315,49.8007989 257.48086,46.2773438 C253.957405,42.7538886 252.195704,38.5000249 252.195704,33.515625 C252.195704,28.5312251 253.957405,24.2773614 257.48086,20.7539062 C261.004315,17.2304511 265.258179,15.46875 270.242579,15.46875 C275.184009,15.46875 279.437873,17.2304511 283.004297,20.7539062 C284.766025,22.4941493 286.087301,24.4330948 286.968164,26.5708008 C287.849028,28.7085068 288.289454,31.023425 288.289454,33.515625 C288.289454,34.4824267 287.96182,35.2827117 287.306543,35.9165039 C286.651267,36.5502961 285.850982,36.8671875 284.905664,36.8671875 L259.382227,36.8671875 C259.747463,38.048834 260.284567,39.1284131 260.993555,40.105957 C261.702543,41.083501 262.535054,41.9213832 263.491114,42.6196289 C264.447173,43.3178746 265.499897,43.8603496 266.649317,44.2470703 C267.798737,44.633791 268.996479,44.8271484 270.242579,44.8271484 C271.660554,44.8271484 272.960346,44.6123068 274.141993,44.1826172 C275.323639,43.7529275 276.419331,43.1084027 277.429102,42.2490234 C278.073636,41.7119114 278.81484,41.4326173 279.652735,41.4111328 Z M294.503907,15.46875 L296.018555,15.46875 L296.018555,3.3515625 C296.018555,2.42772976 296.346189,1.63818687 297.001465,0.982910156 C297.656742,0.327633442 298.457027,0 299.402344,0 C300.326177,0 301.11572,0.327633442 301.770997,0.982910156 C302.426273,1.63818687 302.753907,2.42772976 302.753907,3.3515625 L302.753907,15.46875 L306.782227,15.46875 C307.70606,15.46875 308.490232,15.7963834 309.134766,16.4516602 C309.779301,17.1069369 310.101563,17.8964798 310.101563,18.8203125 C310.101563,19.7656297 309.779301,20.5659147 309.134766,21.2211914 C308.490232,21.8764681 307.70606,22.2041016 306.782227,22.2041016 L302.753907,22.2041016 L302.753907,38.4140625 C302.753907,42.6894745 304.902323,44.8271484 309.199219,44.8271484 C310.123052,44.8271484 310.907224,45.1547819 311.551758,45.8100586 C312.196293,46.4653353 312.518555,47.2548782 312.518555,48.1787109 C312.518555,49.1240282 312.196293,49.9243131 311.551758,50.5795898 C310.907224,51.2348666 310.123052,51.5625 309.199219,51.5625 C300.412066,51.5625 296.018555,47.1797313 296.018555,38.4140625 L296.018555,22.2041016 L294.503907,22.2041016 C293.601558,22.2041016 292.822758,21.8764681 292.167481,21.2211914 C291.512204,20.5659147 291.184571,19.7656297 291.184571,18.8203125 C291.184571,17.8964798 291.512204,17.1069369 292.167481,16.4516602 C292.822758,15.7963834 293.601558,15.46875 294.503907,15.46875 Z" id="carpet" stroke="#000000" fill="#000000"></path>
                    <path d="M6.73535156,19.8203125 L6.73535156,20.4648438 C8.34668774,19.1757748 10.0976468,18.1875034 11.9882812,17.5 C13.8789157,16.8124966 15.8984268,16.46875 18.046875,16.46875 C18.9921922,16.46875 20.0073188,16.5332025 21.0922852,16.6621094 C22.1772515,16.7910163 23.176265,17.021971 24.0893555,17.3549805 C25.002446,17.6879899 25.7597626,18.1445283 26.3613281,18.7246094 C26.9628936,19.3046904 27.2636719,20.056636 27.2636719,20.9804688 C27.2636719,21.4531274 27.1723642,21.8935526 26.9897461,22.3017578 C26.807128,22.709963 26.5654312,23.0698227 26.2646484,23.3813477 C25.9638657,23.6928727 25.609377,23.9345695 25.2011719,24.1064453 C24.7929667,24.2783212 24.3525414,24.3642578 23.8798828,24.3642578 C23.4716776,24.3642578 22.9990261,24.2460949 22.4619141,24.0097656 C21.1083917,23.4726536 19.6367267,23.2041016 18.046875,23.2041016 C16.4785078,23.2041016 15.0068428,23.4995088 13.6318359,24.090332 C12.2568291,24.6811553 11.0590871,25.4868113 10.0385742,26.5073242 C9.0180613,27.5278371 8.2124053,28.7255791 7.62158203,30.1005859 C7.03075876,31.4755928 6.73535156,32.9472578 6.73535156,34.515625 L6.73535156,49.2109375 C6.73535156,50.1347702 6.40771812,50.9243131 5.75244141,51.5795898 C5.09716469,52.2348666 4.30762181,52.5625 3.38378906,52.5625 C2.43847184,52.5625 1.63818687,52.2348666 0.982910156,51.5795898 C0.327633442,50.9243131 0,50.1347702 0,49.2109375 L0,19.8203125 C0,18.8964798 0.327633442,18.1069369 0.982910156,17.4516602 C1.63818687,16.7963834 2.43847184,16.46875 3.38378906,16.46875 C4.30762181,16.46875 5.09716469,16.7963834 5.75244141,17.4516602 C6.40771812,18.1069369 6.73535156,18.8964798 6.73535156,19.8203125 Z M57.8736329,31.1640625 C57.5083967,29.982416 56.9659217,28.9028369 56.2461915,27.925293 C55.5264613,26.947749 54.6885791,26.1098668 53.7325196,25.4116211 C52.7764602,24.7133754 51.7237363,24.1709004 50.5743165,23.7841797 C49.4248967,23.397459 48.2378968,23.2041016 47.0132813,23.2041016 C45.7886658,23.2041016 44.596295,23.397459 43.4361329,23.7841797 C42.2759709,24.1709004 41.2125049,24.7133754 40.2457032,25.4116211 C39.2789015,26.1098668 38.4410193,26.947749 37.7320313,27.925293 C37.0230434,28.9028369 36.4966815,29.982416 36.1529298,31.1640625 L57.8736329,31.1640625 Z M56.4234376,42.4111328 C57.3902393,42.4111328 58.1905243,42.7280242 58.8243165,43.3618164 C59.4581087,43.9956086 59.7750001,44.7958936 59.7750001,45.7626953 C59.7750001,46.7080125 59.4527377,47.5136685 58.8082032,48.1796875 C55.4781084,51.1015771 51.5465071,52.5625 47.0132813,52.5625 C42.0288814,52.5625 37.7750177,50.8007989 34.2515626,47.2773438 C30.7281075,43.7538886 28.9664063,39.5000249 28.9664063,34.515625 C28.9664063,29.5312251 30.7281075,25.2773614 34.2515626,21.7539062 C37.7750177,18.2304511 42.0288814,16.46875 47.0132813,16.46875 C51.9547123,16.46875 56.208576,18.2304511 59.7750001,21.7539062 C61.5367277,23.4941493 62.8580035,25.4330948 63.7388673,27.5708008 C64.6197311,29.7085068 65.0601563,32.023425 65.0601563,34.515625 C65.0601563,35.4824267 64.7325229,36.2827117 64.0772462,36.9165039 C63.4219695,37.5502961 62.6216845,37.8671875 61.6763673,37.8671875 L36.1529298,37.8671875 C36.518166,39.048834 37.05527,40.1284131 37.7642579,41.105957 C38.4732458,42.083501 39.305757,42.9213832 40.2618165,43.6196289 C41.217876,44.3178746 42.2705998,44.8603496 43.4200196,45.2470703 C44.5694394,45.633791 45.7671814,45.8271484 47.0132813,45.8271484 C48.4312572,45.8271484 49.7310489,45.6123068 50.9126954,45.1826172 C52.0943419,44.7529275 53.1900341,44.1084027 54.1998048,43.2490234 C54.8443393,42.7119114 55.5855428,42.4326173 56.4234376,42.4111328 Z M97.4748049,34.515625 C97.4748049,32.9687423 97.1793977,31.5131904 96.5885744,30.1489258 C95.9977511,28.7846611 95.1920951,27.5869192 94.1715822,26.5556641 C93.1510693,25.5244089 91.9533274,24.7080108 90.5783205,24.1064453 C89.2033136,23.5048798 87.7316487,23.2041016 86.1632814,23.2041016 C84.5734297,23.2041016 83.0910227,23.5048798 81.7160158,24.1064453 C80.3410089,24.7080108 79.1486381,25.5190379 78.1388674,26.5395508 C77.1290967,27.5600637 76.3288117,28.7578056 75.7379885,30.1328125 C75.1471652,31.5078194 74.851758,32.9687423 74.851758,34.515625 C74.851758,36.0625077 75.1471652,37.5234306 75.7379885,38.8984375 C76.3288117,40.2734444 77.1290967,41.4711863 78.1388674,42.4916992 C79.1486381,43.5122121 80.3410089,44.3232392 81.7160158,44.9248047 C83.0910227,45.5263702 84.5734297,45.8271484 86.1632814,45.8271484 C87.7316487,45.8271484 89.2033136,45.5263702 90.5783205,44.9248047 C91.9533274,44.3232392 93.1510693,43.5068411 94.1715822,42.4755859 C95.1920951,41.4443308 95.9977511,40.2465889 96.5885744,38.8823242 C97.1793977,37.5180596 97.4748049,36.0625077 97.4748049,34.515625 Z M86.1632814,16.46875 C90.4386934,16.46875 94.2091636,17.7900258 97.4748049,20.4326172 L97.4748049,4.3515625 C97.4748049,3.38476079 97.7916962,2.58447583 98.4254885,1.95068359 C99.0592807,1.31689136 99.8595657,1 100.826367,1 C101.771685,1 102.57197,1.31689136 103.227246,1.95068359 C103.882523,2.58447583 104.210156,3.38476079 104.210156,4.3515625 L104.210156,34.515625 C104.210156,39.5429939 102.448455,43.7968576 98.9250002,47.2773438 C95.3585761,50.8007989 91.1047124,52.5625 86.1632814,52.5625 C81.1788815,52.5625 76.9250178,50.8007989 73.4015627,47.2773438 C69.8781076,43.7538886 68.1164064,39.5000249 68.1164064,34.515625 C68.1164064,29.5312251 69.8781076,25.2773614 73.4015627,21.7539062 C76.9250178,18.2304511 81.1788815,16.46875 86.1632814,16.46875 Z" id="red" stroke="#FF2600" fill="#FF2600"></path>
                </g>
                <g id="Group-2" transform="translate(333.000000, 0.000000)" fill="#FF2600">
                    <rect id="Rectangle" x="0" y="39.375" width="67.5" height="10.625" rx="3"></rect>
                    <rect id="Rectangle-Copy" x="7.5" y="26.25" width="52.5" height="10.625" rx="3"></rect>
                    <rect id="Rectangle-Copy-2" x="15" y="13.125" width="38.125" height="10.625" rx="3"></rect>
                    <rect id="Rectangle-Copy-3" x="21.875" y="0" width="24.375" height="10.625" rx="3"></rect>
                </g>
            </g>
        </g>
    </g>
</svg>